# xmcd CD database file
#
# Track frame offsets:
#	150
#	28293
#	61840
#	83130
#	123905
#	155018
#	181426
#	209329
#	231361
#
# Disc length: 3461 seconds
#
# Revision: 2
# Processed by: cddbd v1.4PL0 Copyright (c) Steve Scherf et al.
# Submitted via: CDex 1.50
#
DISCID=790d8309
DTITLE=MICHAEL SAGMEISTER with DAVE SAMUELS - Dualism
DYEAR=1900
DGENRE=Jazz
TTITLE0=Oslo
TTITLE1=Dualism
TTITLE2=Cat walk
TTITLE3=Miniature
TTITLE4=Madrugada (Sunrise)
TTITLE5=Quiet
TTITLE6=Samba para dos
TTITLE7=Always in my mind
TTITLE8=Difference
EXTD=
EXTT0=
EXTT1=
EXTT2=
EXTT3=
EXTT4=
EXTT5=
EXTT6=
EXTT7=
EXTT8=
PLAYORDER=
